<svg xmlns="http://www.w3.org/2000/svg" width="207.361" height="92.594" viewBox="0 0 207.361 92.594">
  <g id="Group_77" data-name="Group 77" transform="translate(-100.147 -23.003)">
    <path id="Path_160" data-name="Path 160" d="M201.546,31.969c.977,4.88,1.634,10.152,2.445,15.324-1.853-.946-3.434-2.163-5.217-3.179-4.317,3.8-9.37,8.819-12.553,14.427-1.25,2.2-2.668,4.623-2.445,7.743.218,3.032,2.063,4.474,4.24,5.707-4.362-.949-7.092-5.345-7.01-10.678a28.805,28.805,0,0,1,1.711-8.8,69.545,69.545,0,0,1,7.01-14.02c-1.8-1.459-4.051-2.47-5.787-3.993C189.83,33.675,195.636,32.77,201.546,31.969Z" fill="#fcb815" fill-rule="evenodd"/>
    <path id="Path_161" data-name="Path 161" d="M270.91,45.581c12.237,1.946,24.364,4,36.6,5.95q-13.1,10.533-26.572,20.7c-.763-2.063-1.453-4.2-2.2-6.277-20.377,3.5-41,7.363-63.007,9.537-3.474.343-7.44.693-11.329.734-3.711.038-7.806.4-10.6-1.3,3.836.911,7.75.33,11.412-.245,3.608-.566,7.147-1.464,10.514-2.282,20.587-5,39.283-11.894,58.361-18.422C273.049,51.158,271.919,48.431,270.91,45.581Z" fill="#fcb815" fill-rule="evenodd"/>
    <path id="Path_162" data-name="Path 162" d="M140.088,79.57c6.3.363,15.914-1.4,19.155,1.957,2.765,2.868,2.012,9.981,1.956,15.4-.021,1.952.176,3.993,0,5.787a7.079,7.079,0,0,1-6.6,6.684c-3.344.295-7.218,0-11,0H132.671V76.229c0-1.543-.31-3.563,0-4.728.23-.865,2.792-2.492,3.5-3.1,1.409-1.2,2.586-2.276,3.831-3.261C140.2,69.79,140.034,74.789,140.088,79.57Zm0,7.988c.054,4.673-.109,9.564.081,14.1,4.51-.054,9.238.109,13.612-.081V87.314h-13.53A.223.223,0,0,0,140.088,87.558Z" fill="#002e63" fill-rule="evenodd"/>
    <path id="Path_163" data-name="Path 163" d="M175.788,79.57c5.45-.259,13.8-.649,16.221,2.446,1.633,2.09,1.712,5.547,1.712,9.455,0,3.143.223,7.591-.082,11.085a7.213,7.213,0,0,1-5.623,6.683,30.792,30.792,0,0,1-5.3.164c-6,.167-13.858.878-16.221-2.853-2.117-3.345-1.362-10.24-1.385-15.9-.02-5.057.322-8.183,3.587-10.106a8.926,8.926,0,0,1,1.63-.815C171.681,79.356,173.761,79.667,175.788,79.57Zm-3.178,7.988v14.1h13.611V87.314h-13.53C172.6,87.327,172.6,87.443,172.61,87.558Z" fill="#002e63" fill-rule="evenodd"/>
    <path id="Path_164" data-name="Path 164" d="M233.335,109.4h-7.418V87.4c-2.065-.191-4.483-.028-6.684-.082V109.4h-7.5V87.314h-6.683v22.007c-2.421,2.145-4.866,4.264-7.418,6.276V100.844c0-5.049-.335-10.08,0-14.672a6.979,6.979,0,0,1,6.44-6.6c3.446-.3,7.537,0,11.492,0s7.99-.263,11.412,0c7.331.565,6.52,8.454,6.52,16.629C233.5,100.759,233.39,105.271,233.335,109.4Z" fill="#002e63" fill-rule="evenodd"/>
    <path id="Path_165" data-name="Path 165" d="M237.328,79.57h11.167c3.826,0,7.717-.317,11.085,0,7.163.677,6.358,8.614,6.358,16.547,0,4.58-.161,9.243-.081,13.286-6.694-.436-15.242.611-22.171-.082a6.307,6.307,0,0,1-4.89-2.526c-2.718-3.925-1.885-12.838,1.711-15,2.042-1.228,5.811-.978,9.292-.978h8.478a29.679,29.679,0,0,0,.081-3.5h-21.03C237.33,84.785,237.326,81.828,237.328,79.57Zm7.418,22.089h13.612V98.643H244.827A21.9,21.9,0,0,0,244.746,101.659Z" fill="#002e63" fill-rule="evenodd"/>
    <path id="Path_166" data-name="Path 166" d="M274.415,110.218a1.16,1.16,0,0,1-.9.571,7.718,7.718,0,0,1,.977,1.629c-1.419.2-.85-1.594-2.118-1.548-.222.351.018,1.311-.082,1.548h-.57a32.271,32.271,0,0,1-.082-3.667C272.924,108.563,274.813,108.457,274.415,110.218Zm-2.119.082a4.467,4.467,0,0,0,1.3-.082c.058-.241.244-.355.163-.734-.239-.33-.9-.236-1.466-.245Z" fill="#002e63" fill-rule="evenodd"/>
    <path id="Path_167" data-name="Path 167" d="M239.04,32.051c-1.59-1.481-3.793-2.782-5.135-4.239,10.88-1.644,21.753-3.3,32.767-4.809-3.732,7.611-7.249,14.922-11.086,22.66-2.57-1.906-4.355-3.59-6.846-5.543-4.555,2-9.5,4.484-13.612,6.439-3.271,1.557-6.247,3.033-9.292,4.564-6.568,3.3-14.231,7.393-20.215,10.76-.9.509-1.8,1.044-2.69,1.63-.147.1-.588.532-.489.489-.038.016-.155-.135-.244-.082a67.765,67.765,0,0,0-8.232,5.951,9.08,9.08,0,0,0-3.261,4.157c-.319-2.15,1.358-3.781,2.69-5.379a80.543,80.543,0,0,1,10.351-9.863c4.651-3.876,10.005-7.971,14.591-11.737,2.389-1.586,5.09-3.71,7.661-5.625.9-.669,2.3-1.635,2.69-2.038C232.353,36.891,235.352,34.463,239.04,32.051Z" fill="#002e63" fill-rule="evenodd"/>
    <path id="Path_168" data-name="Path 168" d="M125.415,80.467c-2.47-1.424-8.115-.9-12.307-.9-2.141,0-3.508-.237-4.238.9-1.8,1.67-4.475,4.159-6.521,6.031-.255.234-.825.393-.734.816h19.726a29.668,29.668,0,0,1-.082,3.5c-6.1.671-15.405-1.537-18.747,1.63-.576.546-.9,1.534-1.467,2.119-.723,2.535-1.279,6.712-.571,9.537A6.685,6.685,0,0,0,107,109.4c6.49.4,15.113-.3,21.763,0-.023-4.513.081-9.265.081-14.1C128.839,89.038,129.4,82.764,125.415,80.467Zm-4.074,21.111c-4.375.136-9.319.136-13.694,0a20.425,20.425,0,0,1,.082-2.935h13.612Z" fill="#002e63" fill-rule="evenodd"/>
    <path id="Path_169" data-name="Path 169" d="M274.5,113.315a3.212,3.212,0,0,1-3.911-4.972c1.866-2.006,6.72-.454,5.3,3.423a2.772,2.772,0,0,1-1.386,1.467C274.6,113.327,274.528,113.441,274.5,113.315Zm-1.548-5.38c-3.034-.016-3.5,5.034-.163,5.217a2.6,2.6,0,0,0,1.956-4.32A2.168,2.168,0,0,0,272.948,107.935Z" fill="#002e63" fill-rule="evenodd"/>
  </g>
</svg>
